<?xml version="1.0" encoding="UTF-8"?>
<svg xmlns="http://www.w3.org/2000/svg" version="1.1" xmlns:xlink="http://www.w3.org/1999/xlink" viewBox="0 0 2122 2122">
  <defs>
    <radialGradient id="radial-gradient" cx="981.342" cy="14033.483" fx="981.342" fy="14033.483" r="780.793" gradientTransform="translate(-113.542 -630.393) scale(1.175 .169)" gradientUnits="userSpaceOnUse">
      <stop offset="0" stop-color="#cb9630"/>
      <stop offset=".117" stop-color="#d5aa59"/>
      <stop offset=".278" stop-color="#e1c48b"/>
      <stop offset=".438" stop-color="#ecd9b4"/>
      <stop offset=".592" stop-color="#f4e9d5"/>
      <stop offset=".74" stop-color="#faf5ec"/>
      <stop offset=".879" stop-color="#fdfcfa"/>
      <stop offset="1" stop-color="#fff"/>
    </radialGradient>
    <linearGradient id="linear-gradient" x1="648.326" y1="648.326" x2="1508.303" y2="1508.303" gradientUnits="userSpaceOnUse">
      <stop offset="0" stop-color="#fbf89c"/>
      <stop offset=".033" stop-color="#f9f497"/>
      <stop offset=".068" stop-color="#f5e98a"/>
      <stop offset=".105" stop-color="#edd774"/>
      <stop offset=".142" stop-color="#e3be56"/>
      <stop offset=".176" stop-color="#d8a335"/>
      <stop offset=".223" stop-color="#c9942f"/>
      <stop offset=".314" stop-color="#a46d22"/>
      <stop offset=".323" stop-color="#a16921"/>
      <stop offset=".367" stop-color="#aa7224"/>
      <stop offset=".442" stop-color="#c28c2d"/>
      <stop offset=".496" stop-color="#d8a335"/>
      <stop offset=".564" stop-color="#e4c159"/>
      <stop offset=".643" stop-color="#f0df7d"/>
      <stop offset=".707" stop-color="#f8f193"/>
      <stop offset=".748" stop-color="#fbf89c"/>
      <stop offset=".808" stop-color="#fbf89c"/>
      <stop offset=".826" stop-color="#f8f193"/>
      <stop offset=".853" stop-color="#f0df7d"/>
      <stop offset=".886" stop-color="#e4c15a"/>
      <stop offset=".915" stop-color="#d8a335"/>
      <stop offset=".952" stop-color="#d8a638"/>
      <stop offset=".985" stop-color="#dab142"/>
      <stop offset="1" stop-color="#dcb949"/>
    </linearGradient>
    <linearGradient id="linear-gradient-2" x1="1060.66" y1="1694.692" x2="1060.66" y2="436.08" xlink:href="#linear-gradient"/>
    <linearGradient id="linear-gradient-3" x1="469.741" y1="1060.679" x2="1651.603" y2="1060.679" xlink:href="#linear-gradient"/>
    <linearGradient id="linear-gradient-4" x1="580.645" y1="1060.66" x2="1558.234" y2="1060.66" xlink:href="#linear-gradient"/>
    <radialGradient id="radial-gradient-2" cx="1233.276" cy="874.938" fx="1233.276" fy="874.938" r="480.877" gradientUnits="userSpaceOnUse">
      <stop offset="0" stop-color="#ff6f50"/>
      <stop offset=".165" stop-color="#e8523c"/>
      <stop offset=".407" stop-color="#cd2e23"/>
      <stop offset=".633" stop-color="#b91412"/>
      <stop offset=".838" stop-color="#ad0507"/>
      <stop offset="1" stop-color="#a90004"/>
    </radialGradient>
    <linearGradient id="linear-gradient-5" x1="1880.547" y1="243.814" x2="765.871" y2="1358.491" gradientUnits="userSpaceOnUse">
      <stop offset="0" stop-color="#8a8a8a"/>
      <stop offset=".044" stop-color="gray"/>
      <stop offset=".266" stop-color="#525252"/>
      <stop offset=".479" stop-color="#2e2e2e"/>
      <stop offset=".678" stop-color="#151515"/>
      <stop offset=".858" stop-color="#050505"/>
      <stop offset="1" stop-color="#000"/>
    </linearGradient>
    <linearGradient id="linear-gradient-6" x1="900.414" y1="1299.042" x2="1420.573" y2="518.806" gradientUnits="userSpaceOnUse">
      <stop offset="0" stop-color="#ffeb76"/>
      <stop offset=".237" stop-color="#c3912f"/>
      <stop offset=".238" stop-color="#c39230"/>
      <stop offset=".295" stop-color="#ddb84e"/>
      <stop offset=".347" stop-color="#efd464"/>
      <stop offset=".393" stop-color="#fbe571"/>
      <stop offset=".427" stop-color="#ffeb76"/>
      <stop offset=".628" stop-color="#ffeb76"/>
      <stop offset=".661" stop-color="#fae470"/>
      <stop offset=".707" stop-color="#eed360"/>
      <stop offset=".759" stop-color="#dab646"/>
      <stop offset=".784" stop-color="#cfa738"/>
      <stop offset=".874" stop-color="#b49027"/>
      <stop offset="1" stop-color="#ffeb76"/>
    </linearGradient>
    <linearGradient id="linear-gradient-7" x1="1269" y1="818.26" x2="925.189" y2="1227.999" xlink:href="#linear-gradient-6"/>
    <radialGradient id="radial-gradient-3" cx="3862.948" cy="-3030.74" fx="3862.948" fy="-3030.74" r="661.117" gradientTransform="translate(-1404.224 2858.489) scale(.738)" gradientUnits="userSpaceOnUse">
      <stop offset="0" stop-color="#f7f700"/>
      <stop offset=".01" stop-color="#f7e400"/>
      <stop offset=".03" stop-color="#f7b300"/>
      <stop offset=".033" stop-color="#f7ab00"/>
      <stop offset=".068" stop-color="#d39200"/>
      <stop offset=".121" stop-color="#a27000"/>
      <stop offset=".178" stop-color="#765200"/>
      <stop offset=".237" stop-color="#523800"/>
      <stop offset=".298" stop-color="#342400"/>
      <stop offset=".362" stop-color="#1d1400"/>
      <stop offset=".431" stop-color="#0c0800"/>
      <stop offset=".507" stop-color="#030200"/>
      <stop offset=".608" stop-color="#000"/>
    </radialGradient>
    <radialGradient id="radial-gradient-4" cx="3862.948" cy="-3536.914" fx="3862.948" fy="-3536.914" r="661.028" gradientTransform="translate(-1404.224 2777.406) scale(.738 .602)" gradientUnits="userSpaceOnUse">
      <stop offset="0" stop-color="#f7f700"/>
      <stop offset=".01" stop-color="#f7e400"/>
      <stop offset=".03" stop-color="#f7b300"/>
      <stop offset=".033" stop-color="#f7ab00"/>
      <stop offset=".036" stop-color="#f3a800"/>
      <stop offset=".075" stop-color="#c58900"/>
      <stop offset=".118" stop-color="#9c6c00"/>
      <stop offset=".165" stop-color="#775200"/>
      <stop offset=".217" stop-color="#563b00"/>
      <stop offset=".274" stop-color="#3b2900"/>
      <stop offset=".338" stop-color="#251900"/>
      <stop offset=".414" stop-color="#140e00"/>
      <stop offset=".507" stop-color="#080500"/>
      <stop offset=".637" stop-color="#010100"/>
      <stop offset="1" stop-color="#000"/>
    </radialGradient>
    <radialGradient id="radial-gradient-5" cx="2656.075" cy="-2755.43" fx="2656.075" fy="-2755.43" r="542.796" xlink:href="#radial-gradient-3"/>
    <radialGradient id="radial-gradient-6" cx="2656.075" cy="-3203.391" fx="2656.075" fy="-3203.391" r="542.724" xlink:href="#radial-gradient-4"/>
    <radialGradient id="radial-gradient-7" cx="3638.138" cy="-1791.846" fx="3638.138" fy="-1791.846" r="542.796" xlink:href="#radial-gradient-3"/>
    <radialGradient id="radial-gradient-8" cx="3638.138" cy="-2036.046" fx="3638.138" fy="-2036.046" r="542.723" xlink:href="#radial-gradient-4"/>
  </defs>
  <!-- Generator: Adobe Illustrator 28.7.7, SVG Export Plug-In . SVG Version: 1.2.0 Build 194)  -->
  <g style="isolation: isolate;">
    <g id="Layer_1">
      <g>
        <rect width="2121.32" height="2121.32" style="fill: #fff;"/>
        <g style="mix-blend-mode: multiply; opacity: .5;">
          <ellipse cx="1039.927" cy="1742.669" rx="917.711" ry="132.037" style="fill: url(#radial-gradient);"/>
        </g>
        <g>
          <g>
            <circle cx="1060.66" cy="1060.66" r="622.372" style="fill: url(#linear-gradient);"/>
            <circle cx="1060.66" cy="1060.66" r="609.444" style="fill: url(#linear-gradient-2);"/>
            <path d="M1062.028,1651.604h-1.368c-2.733,0-5.459-.017-8.182-.055l1.077-80.894c2.364.029,4.731.046,7.105.046h1.368v80.903ZM1080.768,1651.262l-2.722-80.852c2.797-.097,5.586-.215,8.368-.351l3.988,80.802c-3.204.161-6.415.295-9.634.401ZM1033.819,1651c-3.217-.144-6.426-.316-9.628-.51l4.896-80.751c2.784.169,5.571.317,8.366.443l-3.634,80.819ZM1109.047,1649.65l-6.58-80.633c2.783-.228,5.563-.473,8.334-.747l7.859,80.523c-3.198.309-6.399.595-9.613.857ZM1005.561,1649.067c-3.21-.3-6.411-.62-9.602-.971l8.77-80.422c2.769.3,5.544.578,8.323.835l-7.492,80.557ZM1137.174,1646.691l-10.336-80.236c2.75-.355,5.493-.734,8.228-1.136l11.73,80.05c-3.2.468-6.407.907-9.622,1.321ZM977.47,1645.787c-3.21-.452-6.411-.928-9.606-1.435l12.637-79.907c2.73.431,5.467.84,8.213,1.224l-11.244,80.117ZM1165.182,1642.382l-14.192-79.645c2.727-.485,5.443-.996,8.151-1.528l15.604,79.384c-3.176.625-6.365,1.22-9.562,1.789ZM949.501,1641.154c-3.168-.6-6.327-1.229-9.476-1.883l16.39-79.223c2.727.566,5.459,1.106,8.196,1.629l-15.11,79.477ZM1192.978,1636.722l-18.056-78.86c2.695-.616,5.381-1.254,8.055-1.917l19.475,78.523c-3.147.781-6.306,1.528-9.474,2.254ZM921.718,1635.168c-3.121-.759-6.234-1.536-9.336-2.338l20.264-78.32c2.705.7,5.421,1.376,8.146,2.034l-19.073,78.624ZM1220.432,1629.74l-21.804-77.906c2.676-.751,5.343-1.524,8.001-2.313l23.112,77.526c-3.091.924-6.194,1.824-9.309,2.693ZM894.394,1627.884c-3.1-.907-6.19-1.841-9.269-2.798l24.008-77.256c2.652.823,5.311,1.629,7.981,2.41l-22.72,77.645ZM1247.557,1621.43l-25.582-76.75c2.649-.882,5.286-1.785,7.918-2.71l26.856,76.311c-3.055,1.077-6.118,2.123-9.192,3.149ZM867.376,1619.256c-3.038-1.051-6.067-2.127-9.085-3.225l27.658-76.023c2.621.954,5.253,1.886,7.895,2.803l-26.469,76.446ZM1274.288,1611.794l-29.224-75.441c2.596-1.005,5.181-2.034,7.754-3.082l30.515,74.927c-3.003,1.224-6.019,2.423-9.045,3.596ZM840.771,1609.329c-2.957-1.19-5.903-2.402-8.838-3.634l31.3-74.597c2.577,1.08,5.164,2.14,7.762,3.187l-30.224,75.045ZM1300.54,1600.879l-32.858-73.93c2.538-1.127,5.065-2.275,7.58-3.444l34.146,73.339c-2.942,1.372-5.898,2.714-8.868,4.036ZM814.885,1598.22c-2.935-1.346-5.858-2.714-8.767-4.107l34.918-72.976c2.488,1.19,4.987,2.359,7.496,3.508l-33.648,73.576ZM1326.22,1588.707l-36.408-72.251c2.497-1.257,4.981-2.532,7.456-3.832l37.558,71.656c-2.857,1.498-5.725,2.975-8.606,4.427ZM789.46,1585.824c-2.851-1.478-5.691-2.976-8.519-4.495l38.333-71.246c2.444,1.317,4.9,2.613,7.367,3.888l-37.18,71.854ZM1351.254,1575.327l-39.832-70.419c2.427-1.371,4.842-2.764,7.245-4.174l40.979,69.752c-2.783,1.637-5.582,3.25-8.392,4.841ZM764.639,1572.225c-2.775-1.612-5.533-3.242-8.28-4.896l41.726-69.313c2.384,1.435,4.784,2.853,7.196,4.255l-40.642,69.954ZM1375.59,1560.774l-43.131-68.444c2.349-1.481,4.684-2.98,7.008-4.499l44.297,67.691c-2.708,1.773-5.432,3.524-8.174,5.251ZM740.571,1557.486c-2.716-1.747-5.413-3.524-8.096-5.318l45.006-67.228c2.298,1.541,4.611,3.056,6.934,4.559l-43.844,67.988ZM1399.247,1545.043l-46.436-66.248c2.292-1.604,4.569-3.225,6.833-4.867l47.462,65.514c-2.607,1.886-5.225,3.752-7.859,5.601ZM717.169,1541.569c-2.621-1.874-5.23-3.769-7.821-5.689l48.158-65.008c2.229,1.651,4.47,3.284,6.724,4.892l-47.062,65.805ZM1422.069,1528.236l-49.535-63.961c2.193-1.701,4.375-3.415,6.54-5.154l50.624,63.108c-2.528,2.026-5.069,4.027-7.629,6.006ZM694.533,1524.552c-2.522-1.997-5.029-4.01-7.52-6.049l51.202-62.636c2.157,1.76,4.327,3.503,6.51,5.23l-50.193,63.455ZM1444.046,1510.374l-52.51-61.547c2.117-1.806,4.218-3.625,6.306-5.47l53.515,60.677c-2.42,2.132-4.856,4.246-7.31,6.34ZM672.763,1506.483c-2.431-2.119-4.845-4.255-7.24-6.412l54.144-60.111c2.066,1.861,4.147,3.701,6.24,5.525l-53.143,60.998ZM1465.152,1491.474l-55.389-58.972c2.029-1.904,4.039-3.824,6.038-5.761l56.347,58.052c-2.315,2.249-4.647,4.474-6.996,6.681ZM651.843,1487.367c-2.313-2.22-4.606-4.453-6.882-6.702l56.891-57.52c1.992,1.971,4,3.925,6.021,5.867l-56.03,58.355ZM1485.327,1471.598l-58.137-56.262c1.938-2,3.86-4.018,5.768-6.052l59.023,55.325c-2.199,2.347-4.417,4.676-6.654,6.989ZM631.896,1467.322c-2.213-2.334-4.408-4.684-6.586-7.053l59.571-54.743c1.886,2.055,3.79,4.094,5.708,6.116l-58.693,55.679ZM1504.53,1450.786l-60.757-53.417c1.844-2.098,3.67-4.212,5.48-6.335l61.576,52.472c-2.081,2.444-4.181,4.871-6.299,7.281ZM612.894,1446.312c-2.104-2.439-4.191-4.9-6.257-7.377l62.142-51.805c1.783,2.14,3.583,4.262,5.401,6.373l-61.286,52.81ZM1522.693,1429.121l-63.201-50.505c1.724-2.157,3.432-4.331,5.12-6.522l64.075,49.391c-1.975,2.562-3.974,5.107-5.993,7.635ZM594.905,1424.411c-1.983-2.537-3.946-5.09-5.89-7.661l64.53-48.791c1.682,2.224,3.383,4.431,5.101,6.631l-63.741,49.821ZM1539.84,1406.557l-65.586-47.365c1.634-2.262,3.25-4.537,4.852-6.829l66.308,46.352c-1.838,2.629-3.695,5.242-5.574,7.842ZM577.976,1401.665c-1.859-2.629-3.695-5.275-5.512-7.931l66.785-45.66c1.576,2.305,3.172,4.601,4.786,6.885l-66.058,46.706ZM1555.843,1383.28l-67.734-44.242c1.515-2.322,3.013-4.655,4.493-7.002l68.456,43.11c-1.716,2.727-3.455,5.441-5.215,8.134ZM562.165,1378.147c-1.735-2.722-3.451-5.462-5.146-8.21l68.904-42.401c1.458,2.376,2.937,4.735,4.436,7.078l-68.194,43.533ZM1570.735,1359.221l-69.781-40.933c1.399-2.384,2.778-4.782,4.137-7.192l70.474,39.733c-1.587,2.815-3.198,5.61-4.829,8.391ZM547.498,1353.895c-1.617-2.816-3.206-5.648-4.771-8.496l70.874-39.008c1.338,2.426,2.695,4.845,4.073,7.246l-70.176,40.258ZM1584.451,1334.496l-71.664-37.543c1.288-2.453,2.554-4.917,3.798-7.399l72.272,36.365c-1.447,2.87-2.916,5.732-4.406,8.577ZM533.971,1328.895c-1.467-2.878-2.912-5.765-4.333-8.669l72.651-35.589c1.231,2.507,2.478,5.006,3.746,7.487l-72.064,36.771ZM1596.961,1309.16l-73.381-34.062c1.171-2.523,2.319-5.056,3.451-7.597l73.909,32.905c-1.305,2.929-2.63,5.85-3.978,8.754ZM521.675,1303.28c-1.332-2.95-2.638-5.913-3.921-8.889l74.306-32.001c1.102,2.562,2.227,5.111,3.368,7.648l-73.753,33.242ZM1608.238,1283.24l-74.943-30.473c1.053-2.588,2.083-5.183,3.096-7.788l75.408,29.301c-1.165,3.001-2.351,5.985-3.561,8.96ZM510.626,1277.103c-1.184-3.005-2.343-6.023-3.478-9.049l75.745-28.423c.983,2.621,1.986,5.225,3.007,7.825l-75.274,29.646ZM1618.28,1256.746l-76.32-26.843c.92-2.617,1.819-5.242,2.697-7.88l76.762,25.552c-1.022,3.068-2.068,6.124-3.14,9.172ZM500.85,1250.406c-1.042-3.077-2.057-6.153-3.047-9.247l77.05-24.666c.85,2.655,1.722,5.301,2.616,7.939l-76.619,25.974ZM1627.038,1229.78l-77.531-23.113c.798-2.676,1.573-5.356,2.332-8.053l77.877,21.914c-.87,3.094-1.763,6.179-2.678,9.252ZM492.392,1223.293c-.885-3.089-1.743-6.196-2.579-9.311l78.143-20.952c.721,2.693,1.464,5.378,2.228,8.054l-77.792,22.209ZM1634.477,1202.434l-78.552-19.356c.664-2.697,1.308-5.403,1.929-8.117l78.86,18.065c-.722,3.144-1.467,6.28-2.237,9.407ZM485.263,1195.854c-.732-3.136-1.439-6.276-2.123-9.425l79.063-17.152c.591,2.726,1.205,5.445,1.838,8.158l-78.778,18.419ZM1640.586,1174.763l-79.392-15.549c.532-2.722,1.044-5.458,1.534-8.201l79.641,14.241c-.569,3.182-1.163,6.348-1.783,9.509ZM479.477,1168.128c-.583-3.161-1.139-6.34-1.671-9.526l79.793-13.338c.46,2.748.941,5.488,1.444,8.218l-79.565,14.646ZM1645.358,1146.83l-80.046-11.725c.401-2.747.781-5.499,1.137-8.26l80.232,10.4c-.416,3.199-.855,6.399-1.324,9.585ZM475.024,1140.157c-.431-3.195-.834-6.399-1.214-9.611l80.346-9.48c.326,2.764.673,5.521,1.045,8.268l-80.177,10.822ZM1648.785,1118.703l-80.519-7.859c.27-2.764.517-5.533.743-8.311l80.637,6.534c-.259,3.216-.549,6.432-.861,9.636ZM471.919,1111.979c-.276-3.211-.527-6.424-.751-9.644l80.704-5.622c.195,2.781.412,5.555.65,8.319l-80.603,6.947ZM1650.864,1090.471l-80.802-4.043c.139-2.773.256-5.554.348-8.34l80.856,2.726c-.11,3.225-.242,6.445-.403,9.657ZM470.16,1083.709c-.122-3.203-.219-6.415-.292-9.636l80.882-1.815c.063,2.798.148,5.588.253,8.378l-80.844,3.072ZM1651.6,1062.251l-80.903-.363.002-1.229c0-2.789-.021-5.571-.066-8.353l80.89-1.308c.053,3.212.078,6.432.078,9.661l-.002,1.592ZM550.64,1056.119l-80.899-.684c.028-3.225.082-6.445.161-9.657l80.878,1.997c-.069,2.777-.116,5.559-.139,8.345ZM1570.122,1036.175c-.131-2.786-.285-5.563-.46-8.34l80.738-5.115c.205,3.217.384,6.432.536,9.657l-80.814,3.799ZM551.43,1031.68l-80.777-4.541c.182-3.217.388-6.424.619-9.628l80.692,5.808c-.201,2.781-.378,5.567-.534,8.361ZM1568.393,1011.784c-.266-2.777-.553-5.554-.859-8.323l80.405-8.94c.356,3.191.686,6.391.99,9.598l-80.536,7.665ZM553.38,1007.268l-80.472-8.34c.336-3.217.695-6.424,1.081-9.623l80.321,9.682c-.331,2.752-.642,5.512-.929,8.281ZM1565.495,987.485c-.395-2.756-.815-5.504-1.254-8.255l79.886-12.781c.508,3.183.994,6.369,1.452,9.564l-80.084,11.472ZM556.488,983.019l-79.978-12.198c.488-3.191.998-6.369,1.534-9.539l79.772,13.481c-.465,2.747-.907,5.496-1.328,8.255ZM1561.443,963.389c-.527-2.727-1.076-5.449-1.648-8.167l79.169-16.663c.664,3.157,1.302,6.318,1.914,9.492l-79.434,15.338ZM560.756,958.94l-79.299-16.022c.639-3.169,1.308-6.331,2.001-9.484l79.016,17.365c-.595,2.705-1.167,5.419-1.718,8.141ZM1556.231,939.5c-.658-2.705-1.338-5.403-2.04-8.096l78.282-20.42c.812,3.115,1.601,6.242,2.365,9.379l-78.607,19.137ZM566.174,935.131l-78.425-19.863c.791-3.128,1.606-6.238,2.445-9.344l78.096,21.12c-.726,2.684-1.43,5.381-2.117,8.087ZM1549.881,915.914c-.787-2.663-1.595-5.322-2.427-7.969l77.184-24.243c.967,3.077,1.906,6.167,2.824,9.268l-77.581,22.944ZM572.736,911.592l-77.374-23.636c.944-3.081,1.91-6.154,2.898-9.218l76.982,24.886c-.857,2.642-1.69,5.301-2.505,7.968ZM1542.374,892.594c-.92-2.638-1.861-5.258-2.822-7.871l75.931-27.925c1.117,3.035,2.21,6.086,3.278,9.147l-76.387,26.649ZM580.434,888.39l-76.146-27.333c1.091-3.035,2.203-6.061,3.34-9.07l75.691,28.566c-.982,2.604-1.944,5.217-2.885,7.838ZM1533.737,869.646c-1.044-2.591-2.115-5.17-3.203-7.741l74.504-31.538c1.262,2.985,2.498,5.968,3.71,8.965l-75.011,30.314ZM589.231,865.616l-74.72-31.023c1.229-2.954,2.478-5.909,3.754-8.846l74.217,32.195c-1.103,2.549-2.188,5.107-3.252,7.674ZM1524.006,847.146c-1.167-2.528-2.356-5.044-3.563-7.547l72.876-35.133c1.405,2.916,2.788,5.845,4.145,8.787l-73.457,33.892ZM599.113,843.296l-73.183-34.483c1.374-2.917,2.773-5.82,4.195-8.711l72.588,35.724c-1.22,2.477-2.42,4.967-3.6,7.47ZM1513.205,825.16c-1.293-2.481-2.608-4.95-3.94-7.411l71.14-38.518c1.534,2.832,3.048,5.672,4.539,8.534l-71.74,37.396ZM610.024,821.539l-71.402-38.037c1.505-2.824,3.031-5.635,4.578-8.437l70.815,39.118c-1.349,2.44-2.68,4.896-3.991,7.357ZM1501.351,803.706c-1.402-2.401-2.822-4.786-4.261-7.162l69.165-41.962c1.679,2.764,3.336,5.546,4.97,8.345l-69.874,40.78ZM622.019,800.236l-69.554-41.321c1.651-2.778,3.324-5.538,5.019-8.286l68.835,42.512c-1.454,2.35-2.887,4.714-4.301,7.095ZM1488.501,782.885c-1.52-2.334-3.058-4.655-4.615-6.969l67.076-45.229c1.807,2.676,3.59,5.369,5.35,8.074l-67.81,44.123ZM634.979,779.593l-67.456-44.663c1.773-2.676,3.569-5.339,5.384-7.99l66.738,45.727c-1.575,2.296-3.13,4.605-4.666,6.926ZM1474.653,762.68c-1.62-2.249-3.261-4.482-4.92-6.702l64.806-48.429c1.937,2.591,3.855,5.204,5.75,7.833l-65.636,47.297ZM648.929,759.565l-65.223-47.863c1.897-2.587,3.815-5.162,5.75-7.716l64.476,48.868c-1.687,2.224-3.351,4.461-5.004,6.711ZM1459.87,743.181c-1.737-2.182-3.493-4.352-5.266-6.505l62.475-51.4c2.048,2.49,4.073,4.989,6.08,7.509l-63.29,50.396ZM663.863,740.176l-62.918-50.86c2.03-2.511,4.081-5.006,6.152-7.479l62.049,51.915c-1.779,2.127-3.538,4.268-5.282,6.424ZM1444.173,724.403c-1.832-2.085-3.678-4.158-5.544-6.213l59.896-54.38c2.174,2.393,4.324,4.803,6.456,7.23l-60.808,53.363ZM679.702,721.52l-60.462-53.756c2.152-2.418,4.324-4.819,6.515-7.196l59.521,54.794c-1.875,2.038-3.734,4.085-5.574,6.158ZM1427.587,706.393c-1.922-1.992-3.862-3.968-5.816-5.926l57.233-57.174c2.288,2.288,4.557,4.597,6.804,6.927l-58.221,56.174ZM696.354,703.696l-57.743-56.667c2.249-2.292,4.514-4.567,6.797-6.821l56.866,57.545c-1.988,1.967-3.961,3.947-5.92,5.943ZM1410.212,689.24c-2.036-1.916-4.085-3.811-6.15-5.694l54.498-59.791c2.372,2.161,4.73,4.343,7.066,6.538l-55.414,58.947ZM713.907,686.619l-55.005-59.327c2.366-2.195,4.746-4.369,7.148-6.521l54.021,60.221c-2.068,1.857-4.124,3.735-6.164,5.627ZM1391.99,672.876c-2.106-1.802-4.227-3.588-6.362-5.352l51.544-62.357c2.49,2.06,4.961,4.141,7.414,6.238l-52.595,61.471ZM732.235,670.411l-52.105-61.884c2.459-2.072,4.936-4.123,7.433-6.158l51.117,62.703c-2.162,1.764-4.311,3.545-6.445,5.339ZM1373.033,657.437c-2.199-1.709-4.411-3.398-6.637-5.069l48.585-64.687c2.572,1.933,5.13,3.883,7.671,5.854l-49.618,63.902ZM751.334,655.09l-49.112-64.291c2.562-1.958,5.143-3.896,7.741-5.811l48.049,65.083c-2.239,1.655-4.466,3.33-6.677,5.019ZM1353.389,642.93c-2.271-1.595-4.554-3.17-6.855-4.727l45.399-66.966c2.667,1.81,5.318,3.638,7.95,5.487l-46.494,66.206ZM771.159,640.68l-46.023-66.535c2.666-1.844,5.35-3.664,8.049-5.462l44.849,67.329c-2.306,1.536-4.598,3.094-6.875,4.668ZM1333.056,629.365c-2.334-1.482-4.683-2.942-7.047-4.381l42.133-69.068c2.758,1.684,5.5,3.389,8.226,5.115l-43.313,68.334ZM791.608,627.271l-42.731-68.696c2.733-1.701,5.482-3.381,8.247-5.04l41.633,69.364c-2.397,1.439-4.78,2.9-7.15,4.372ZM1312.169,616.829c-2.427-1.376-4.864-2.731-7.314-4.073l38.843-70.967c2.809,1.536,5.605,3.094,8.387,4.672l-39.915,70.368ZM812.697,614.837l-39.367-70.681c2.817-1.57,5.647-3.115,8.49-4.638l38.232,71.296c-2.463,1.321-4.913,2.663-7.355,4.022ZM1290.665,605.289c-2.473-1.254-4.957-2.482-7.454-3.697l35.336-72.774c2.893,1.401,5.774,2.832,8.64,4.28l-36.522,72.191ZM834.347,603.437l-35.864-72.52c2.892-1.427,5.793-2.841,8.708-4.225l34.698,73.086c-2.526,1.198-5.04,2.418-7.542,3.659ZM1268.66,594.805c-2.545-1.135-5.101-2.254-7.669-3.355l31.904-74.344c2.94,1.262,5.867,2.541,8.779,3.845l-33.014,73.854ZM856.601,593.066l-32.415-74.124c2.969-1.3,5.947-2.571,8.939-3.82l31.158,74.665c-2.571,1.073-5.13,2.166-7.682,3.279ZM1246.166,585.393c-2.577-1.009-5.169-1.992-7.769-2.959l28.177-75.838c3.035,1.127,6.057,2.279,9.069,3.457l-29.478,75.34ZM879.289,583.793l-28.79-75.601c3.027-1.157,6.065-2.279,9.117-3.385l27.511,76.083c-2.621.945-5.233,1.916-7.838,2.904ZM1223.234,577.065c-2.648-.89-5.308-1.76-7.973-2.608l24.541-77.087c3.06.975,6.112,1.971,9.153,2.988l-25.721,76.707ZM902.383,575.639l-25.037-76.927c3.077-1.005,6.164-1.984,9.265-2.934l23.759,77.333c-2.67.823-5.331,1.667-7.986,2.528ZM1199.845,569.831c-2.669-.755-5.347-1.489-8.036-2.203l20.766-78.193c3.128.832,6.24,1.684,9.344,2.566l-22.074,77.83ZM925.872,568.607l-21.383-78.025c3.126-.857,6.262-1.688,9.406-2.49l19.994,78.396c-2.68.684-5.352,1.388-8.018,2.119ZM1176.215,563.753c-2.71-.625-5.426-1.232-8.15-1.815l16.925-79.114c3.155.676,6.302,1.376,9.438,2.102l-18.212,78.826ZM949.571,562.741l-17.537-78.979c3.142-.696,6.298-1.371,9.46-2.022l16.238,79.257c-2.729.557-5.449,1.139-8.161,1.743ZM1152.242,558.815c-2.716-.494-5.44-.967-8.173-1.414l13.05-79.84c3.206.524,6.399,1.073,9.583,1.655l-14.46,79.599ZM973.585,558.013l-13.772-79.721c3.189-.549,6.384-1.073,9.587-1.57l12.38,79.949c-2.739.422-5.47.874-8.194,1.342ZM1128.101,555.033c-2.76-.363-5.526-.705-8.3-1.025l9.306-80.363c3.203.371,6.396.764,9.583,1.186l-10.59,80.202ZM997.765,554.45l-9.91-80.295c3.208-.397,6.424-.764,9.646-1.106l8.518,80.456c-2.758.291-5.51.603-8.254.945ZM1103.8,552.412c-2.777-.232-5.56-.443-8.348-.633l5.449-80.717c3.214.215,6.419.46,9.619.726l-6.72,80.625ZM1022.09,552.054l-6.036-80.675c3.202-.241,6.41-.452,9.623-.642l4.769,80.759c-2.792.165-5.577.351-8.356.558ZM1079.388,550.952c-2.78-.097-5.565-.177-8.357-.232l1.591-80.886c3.214.063,6.418.153,9.619.266l-2.853,80.852ZM1046.515,550.808l-2.166-80.869c3.206-.089,6.418-.153,9.636-.186l.907,80.895c-2.796.034-5.59.089-8.378.161Z" style="fill: url(#linear-gradient-3);"/>
            <circle cx="1060.66" cy="1060.66" r="492.864" style="fill: url(#linear-gradient-4);"/>
            <path d="M1536.131,982.597c-44.296-271.072-294.078-370.875-255.89-350.604-224.246-105.372-405.944-15.785-405.27-15.785-461.744,184.469-355.401,880.708,143.634,924.31,315.884,26.641,567.959-250.128,517.526-557.921Z" style="fill: url(#radial-gradient-2);"/>
            <path d="M731.791,844.532c172.981,0,340.789,69.543,463.049,191.796,95.436,95.436,158.746,218.634,181.928,350.375,86.63-82.361,140.633-198.713,140.633-327.676,0-249.673-202.402-452.085-452.079-452.085-173.44,0-324.026,97.685-399.847,241.012,21.962-2.262,44.095-3.423,66.316-3.423Z" style="fill: url(#linear-gradient-5); mix-blend-mode: color-dodge;"/>
          </g>
          <g>
            <path d="M1246.18,799.113h-410.311v78.02h144.888c53.914,8.825,94.213,30.73,110.681,59.598h-255.569v78.02h250.297c-2.786,3.807-5.983,7.335-9.639,10.649-44.244,40.074-136.315,41.916-219.069,40.528l-7.335-.124v53.682l273.966,275.406h110.258l-253.501-254.885c47.571-5.378,107.149-19.813,147.923-56.668,20.926-18.908,35.351-41.958,42.933-68.589h74.479v-78.02h-71.806c-4.867-21.768-14.686-41.736-29.287-59.598h101.093v-78.02Z" style="fill: url(#linear-gradient-6);"/>
            <path d="M1240.391,804.901v66.444h-107.513l7.727,9.452c14.003,17.13,23.463,36.376,28.119,57.198l1.011,4.526h70.655v66.442h-73.06l-1.198,4.204c-7.278,25.559-21.155,47.725-41.247,65.879-40.605,36.703-101.096,50.283-144.694,55.213l-11.895,1.345,8.443,8.487,243.685,245.014h-93.932l-270.583-272.006v-45.407l1.451.024c12.264.207,22.429.302,31.993.302,71.369,0,149.88-5.03,191.058-42.329,3.926-3.557,7.433-7.433,10.425-11.52l6.734-9.207h-255.914v-66.442h259.747l-4.938-8.657c-17.456-30.599-59.289-53.36-114.775-62.441l-.464-.077h-139.57v-66.444h398.735M1246.18,799.112h-410.312v78.021h144.888c53.915,8.825,94.215,30.73,110.681,59.598h-255.57v78.02h250.297c-2.786,3.807-5.983,7.337-9.639,10.649-38.618,34.98-113.679,40.83-187.173,40.83-10.705,0-21.375-.124-31.896-.301l-7.337-.124v53.682l273.966,275.406h110.259l-253.501-254.885c47.571-5.378,107.15-19.813,147.924-56.669,20.927-18.908,35.35-41.957,42.933-68.589h74.479v-78.02h-71.807c-4.866-21.768-14.684-41.735-29.286-59.598h101.093v-78.021h0Z" style="fill: url(#linear-gradient-7);"/>
          </g>
        </g>
        <g>
          <path d="M1933.631,648.169c0,266.291-218.386,482.153-487.773,482.153s-487.773-215.861-487.773-482.153,218.385-482.152,487.773-482.152,487.773,215.832,487.773,482.152Z" style="fill: url(#radial-gradient-3); mix-blend-mode: screen;"/>
          <path d="M1933.631,648.155c0,219.755-218.386,397.913-487.773,397.913s-487.773-178.158-487.773-397.913,218.385-397.856,487.773-397.856,487.773,178.102,487.773,397.856Z" style="fill: url(#radial-gradient-4); mix-blend-mode: screen;"/>
        </g>
        <g>
          <path d="M955.904,848.953c0,218.633-179.301,395.861-400.476,395.861s-400.476-177.228-400.476-395.861,179.301-395.86,400.476-395.86,400.476,177.204,400.476,395.86Z" style="fill: url(#radial-gradient-5); mix-blend-mode: screen;"/>
          <path d="M955.904,848.941c0,180.426-179.301,326.699-400.476,326.699s-400.476-146.273-400.476-326.699,179.301-326.652,400.476-326.652,400.476,146.228,400.476,326.652Z" style="fill: url(#radial-gradient-6); mix-blend-mode: screen;"/>
        </g>
        <g>
          <path d="M1680.469,1551.695c0,218.633-179.3,395.861-400.476,395.861s-400.475-177.228-400.475-395.861,179.3-395.86,400.475-395.86,400.476,177.204,400.476,395.86Z" style="fill: url(#radial-gradient-7); mix-blend-mode: screen;"/>
          <path d="M1680.469,1551.683c0,180.426-179.3,326.699-400.476,326.699s-400.475-146.273-400.475-326.699,179.3-326.652,400.475-326.652,400.476,146.227,400.476,326.652Z" style="fill: url(#radial-gradient-8); mix-blend-mode: screen;"/>
        </g>
      </g>
    </g>
  </g>
</svg>